<svg width="250" height="64" viewBox="0 0 250 64" fill="none" xmlns="http://www.w3.org/2000/svg">
<path d="M19.6328 30.2151L0 0C2.73153 0 6.54428 1.79623 8.10922 2.69434L24.7544 24.0566C26.4617 25.7502 28.7379 26.6868 29.6627 26.9434L65.0871 32.1396L63.5933 32.9094H24.3276C22.1083 32.9094 20.273 31.1132 19.6328 30.2151Z" fill="#EE1D23"/>
<path d="M29.6627 37.1434H61.0325C60.6911 37.7592 57.4758 39.8377 55.9109 40.8L32.8637 42.3396C32.0101 42.3396 30.374 43.8792 29.6627 44.6491L12.3772 63.7019V62.1623L26.0349 40.8C27.4006 38.1826 29.0225 37.2717 29.6627 37.1434Z" fill="#EE1D23"/>
<path d="M20.273 38.683L10.2432 24.0566L16.005 37.1434C16.8586 38.683 16.6452 40.3509 16.4318 40.9925L10.67 52.1547C10.1579 53.6943 10.5989 55.8755 10.8834 56.7736L19.6328 43.3019C20.9986 41.1464 20.6287 39.3245 20.273 38.683Z" fill="#EE1D23"/>
<path d="M80.9756 16.07H99.0056V20.51H92.7056V37.1H87.2156V20.51H80.9756V16.07ZM110.683 16.07C113.483 16.07 115.643 16.72 117.163 18.02C118.683 19.3 119.443 21.11 119.443 23.45C119.443 25.91 118.683 27.83 117.163 29.21C115.643 30.57 113.483 31.25 110.683 31.25H106.723V37.1H101.233V16.07H110.683ZM110.683 26.93C111.823 26.93 112.693 26.65 113.293 26.09C113.913 25.53 114.223 24.7 114.223 23.6C114.223 22.54 113.913 21.74 113.293 21.2C112.693 20.66 111.823 20.39 110.683 20.39H106.723V26.93H110.683ZM109.723 29.24H115.063L120.073 37.1H113.863L109.723 29.24ZM129.782 16.07H135.422L144.242 37.1H138.392L132.452 21.56L126.392 37.1H120.752L129.782 16.07ZM126.152 29.18H138.422V33.32H126.152V29.18ZM160.799 23.12C160.119 22.26 159.309 21.58 158.369 21.08C157.429 20.58 156.499 20.33 155.579 20.33C154.779 20.33 154.029 20.49 153.329 20.81C152.629 21.11 152.019 21.54 151.499 22.1C150.979 22.64 150.579 23.29 150.299 24.05C150.019 24.79 149.879 25.6 149.879 26.48C149.879 27.36 150.019 28.18 150.299 28.94C150.579 29.68 150.979 30.33 151.499 30.89C152.019 31.45 152.629 31.89 153.329 32.21C154.029 32.51 154.779 32.66 155.579 32.66C156.459 32.66 157.359 32.44 158.279 32C159.219 31.54 160.059 30.93 160.799 30.17L164.009 33.56C163.249 34.36 162.389 35.06 161.429 35.66C160.469 36.24 159.459 36.69 158.399 37.01C157.359 37.33 156.319 37.49 155.279 37.49C153.699 37.49 152.239 37.22 150.899 36.68C149.559 36.12 148.389 35.35 147.389 34.37C146.409 33.37 145.639 32.21 145.079 30.89C144.519 29.55 144.239 28.1 144.239 26.54C144.239 25 144.519 23.58 145.079 22.28C145.639 20.96 146.429 19.81 147.449 18.83C148.469 17.85 149.659 17.09 151.019 16.55C152.399 16.01 153.889 15.74 155.489 15.74C156.529 15.74 157.569 15.89 158.609 16.19C159.649 16.47 160.629 16.88 161.549 17.42C162.469 17.96 163.279 18.6 163.979 19.34L160.799 23.12ZM166.36 16.07H171.85V25.31L179.74 16.07H186.1L171.85 31.85V37.1H166.36V16.07ZM177.88 24.14L186.58 37.1H180.01L174.22 28.46L177.88 24.14ZM187.991 16.07H206.051V19.61L194.951 32.75H206.231V37.1H187.601V33.59L198.701 20.42H187.991V16.07ZM209.104 16.07H225.694V20.39H214.594V24.41H224.614V28.7H214.594V32.78H225.994V37.1H209.104V16.07ZM238.799 16.07C241.599 16.07 243.759 16.72 245.279 18.02C246.799 19.3 247.559 21.11 247.559 23.45C247.559 25.91 246.799 27.83 245.279 29.21C243.759 30.57 241.599 31.25 238.799 31.25H234.839V37.1H229.349V16.07H238.799ZM238.799 26.93C239.939 26.93 240.809 26.65 241.409 26.09C242.029 25.53 242.339 24.7 242.339 23.6C242.339 22.54 242.029 21.74 241.409 21.2C240.809 20.66 239.939 20.39 238.799 20.39H234.839V26.93H238.799ZM237.839 29.24H243.179L248.189 37.1H241.979L237.839 29.24Z" fill="#E60012"/>
<path d="M88.7976 46.184C88.467 45.96 88.115 45.784 87.7416 45.656C87.379 45.5173 87.0216 45.416 86.6696 45.352C86.3283 45.288 86.0083 45.256 85.7096 45.256C84.9843 45.256 84.403 45.4 83.9656 45.688C83.539 45.976 83.3256 46.3707 83.3256 46.872C83.3256 47.3093 83.4376 47.6613 83.6616 47.928C83.8963 48.1947 84.2003 48.4133 84.5736 48.584C84.947 48.7547 85.3576 48.9093 85.8056 49.048C86.2536 49.176 86.7016 49.32 87.1496 49.48C87.5976 49.6293 88.0083 49.8267 88.3816 50.072C88.755 50.3067 89.0536 50.616 89.2776 51C89.5016 51.3733 89.6136 51.8533 89.6136 52.44C89.6136 53.0587 89.443 53.5973 89.1016 54.056C88.7603 54.504 88.2856 54.856 87.6776 55.112C87.0696 55.3573 86.3656 55.48 85.5656 55.48C85.0216 55.48 84.4883 55.4107 83.9656 55.272C83.443 55.1227 82.9523 54.92 82.4936 54.664C82.035 54.408 81.6296 54.1147 81.2776 53.784L81.8536 52.744C82.2056 53.0747 82.5896 53.3573 83.0056 53.592C83.4216 53.8267 83.8483 54.008 84.2856 54.136C84.7336 54.264 85.1656 54.328 85.5816 54.328C86.3923 54.328 87.0323 54.1627 87.5016 53.832C87.971 53.5013 88.2056 53.0533 88.2056 52.488C88.2056 52.0507 88.0936 51.6933 87.8696 51.416C87.6456 51.1387 87.347 50.9147 86.9736 50.744C86.6003 50.5733 86.1896 50.424 85.7416 50.296C85.2936 50.168 84.8403 50.0293 84.3816 49.88C83.9336 49.72 83.523 49.528 83.1496 49.304C82.7763 49.0693 82.4776 48.7653 82.2536 48.392C82.0296 48.0187 81.9176 47.544 81.9176 46.968C81.9176 46.3813 82.0776 45.8747 82.3976 45.448C82.7176 45.0213 83.171 44.6907 83.7576 44.456C84.3443 44.2107 85.0216 44.088 85.7896 44.088C86.4403 44.088 87.075 44.184 87.6936 44.376C88.323 44.568 88.8723 44.8133 89.3416 45.112L88.7976 46.184ZM90.6429 44.2H92.0189L95.2829 54.584H94.9469L98.1949 44.2H99.4749L102.739 54.584H102.419L105.651 44.2H106.995L103.203 55.4H101.875L98.6589 45.256H98.9949L95.7309 55.4H94.4189L90.6429 44.2ZM108.774 44.2H110.054V55.4H108.774V44.2ZM111.926 44.2H120.518V45.32H116.854V55.4H115.574V45.32H111.926V44.2ZM129.761 46.6C129.334 46.1627 128.828 45.8213 128.241 45.576C127.665 45.32 127.068 45.192 126.449 45.192C125.82 45.192 125.228 45.3093 124.673 45.544C124.118 45.7787 123.633 46.1093 123.217 46.536C122.801 46.952 122.476 47.4373 122.241 47.992C122.006 48.5467 121.889 49.144 121.889 49.784C121.889 50.4133 122.006 51.0053 122.241 51.56C122.476 52.1147 122.801 52.6 123.217 53.016C123.633 53.432 124.118 53.7627 124.673 54.008C125.228 54.2427 125.82 54.36 126.449 54.36C127.068 54.36 127.66 54.2427 128.225 54.008C128.801 53.7627 129.313 53.4267 129.761 53L130.545 53.8C130.182 54.1413 129.772 54.44 129.313 54.696C128.865 54.952 128.396 55.1493 127.905 55.288C127.414 55.4267 126.908 55.496 126.385 55.496C125.574 55.496 124.817 55.352 124.113 55.064C123.42 54.7653 122.806 54.3547 122.273 53.832C121.75 53.3093 121.34 52.7013 121.041 52.008C120.742 51.3147 120.593 50.5733 120.593 49.784C120.593 48.9947 120.742 48.2587 121.041 47.576C121.34 46.8933 121.756 46.2907 122.289 45.768C122.822 45.2453 123.441 44.84 124.145 44.552C124.849 44.264 125.612 44.12 126.433 44.12C126.945 44.12 127.446 44.184 127.937 44.312C128.428 44.44 128.892 44.6267 129.329 44.872C129.766 45.1067 130.166 45.3947 130.529 45.736L129.761 46.6ZM132.852 44.2H134.132V49.304H140.884V44.2H142.164V55.4H140.884V50.408H134.132V55.4H132.852V44.2ZM153.795 46.52C153.347 46.104 152.825 45.7787 152.227 45.544C151.641 45.3093 151.033 45.192 150.403 45.192C149.763 45.192 149.166 45.3147 148.611 45.56C148.057 45.7947 147.566 46.1253 147.139 46.552C146.713 46.968 146.382 47.4533 146.147 48.008C145.913 48.552 145.795 49.144 145.795 49.784C145.795 50.424 145.913 51.0213 146.147 51.576C146.382 52.1307 146.713 52.6213 147.139 53.048C147.566 53.4747 148.057 53.8107 148.611 54.056C149.166 54.2907 149.769 54.408 150.419 54.408C151.006 54.408 151.593 54.296 152.179 54.072C152.766 53.8373 153.289 53.528 153.747 53.144L154.499 54.024C154.137 54.312 153.726 54.568 153.267 54.792C152.809 55.016 152.329 55.192 151.827 55.32C151.337 55.4373 150.841 55.496 150.339 55.496C149.518 55.496 148.755 55.352 148.051 55.064C147.347 54.7653 146.729 54.3547 146.195 53.832C145.662 53.3093 145.246 52.7013 144.947 52.008C144.649 51.3147 144.499 50.5733 144.499 49.784C144.499 48.9947 144.649 48.2587 144.947 47.576C145.257 46.8933 145.678 46.2907 146.211 45.768C146.755 45.2453 147.385 44.84 148.099 44.552C148.814 44.264 149.582 44.12 150.403 44.12C150.915 44.12 151.417 44.184 151.907 44.312C152.409 44.4293 152.878 44.6 153.315 44.824C153.763 45.048 154.169 45.32 154.531 45.64L153.795 46.52ZM153.363 49.928H154.499V54.024H153.363V49.928ZM157.602 44.2H165.202V45.32H158.882V49.16H164.53V50.264H158.882V54.296H165.41V55.4H157.602V44.2ZM171.416 44.2H172.728L177.736 55.4H176.36L172.04 45.512L167.752 55.4H166.408L171.416 44.2ZM168.616 51.384H175.416V52.488H168.616V51.384ZM183.765 44.2C185.173 44.2 186.261 44.5307 187.029 45.192C187.797 45.8427 188.181 46.76 188.181 47.944C188.181 49.1707 187.797 50.1253 187.029 50.808C186.261 51.48 185.173 51.816 183.765 51.816H180.789V55.4H179.509V44.2H183.765ZM183.765 50.712C184.778 50.712 185.562 50.4827 186.117 50.024C186.682 49.5547 186.965 48.872 186.965 47.976C186.965 47.1013 186.682 46.44 186.117 45.992C185.562 45.544 184.778 45.32 183.765 45.32H180.789V50.712H183.765ZM184.149 51.288H185.445L188.293 55.4H186.837L184.149 51.288ZM197.407 46.184C197.076 45.96 196.724 45.784 196.351 45.656C195.988 45.5173 195.631 45.416 195.279 45.352C194.938 45.288 194.618 45.256 194.319 45.256C193.594 45.256 193.012 45.4 192.575 45.688C192.148 45.976 191.935 46.3707 191.935 46.872C191.935 47.3093 192.047 47.6613 192.271 47.928C192.506 48.1947 192.81 48.4133 193.183 48.584C193.556 48.7547 193.967 48.9093 194.415 49.048C194.863 49.176 195.311 49.32 195.759 49.48C196.207 49.6293 196.618 49.8267 196.991 50.072C197.364 50.3067 197.663 50.616 197.887 51C198.111 51.3733 198.223 51.8533 198.223 52.44C198.223 53.0587 198.052 53.5973 197.711 54.056C197.37 54.504 196.895 54.856 196.287 55.112C195.679 55.3573 194.975 55.48 194.175 55.48C193.631 55.48 193.098 55.4107 192.575 55.272C192.052 55.1227 191.562 54.92 191.103 54.664C190.644 54.408 190.239 54.1147 189.887 53.784L190.463 52.744C190.815 53.0747 191.199 53.3573 191.615 53.592C192.031 53.8267 192.458 54.008 192.895 54.136C193.343 54.264 193.775 54.328 194.191 54.328C195.002 54.328 195.642 54.1627 196.111 53.832C196.58 53.5013 196.815 53.0533 196.815 52.488C196.815 52.0507 196.703 51.6933 196.479 51.416C196.255 51.1387 195.956 50.9147 195.583 50.744C195.21 50.5733 194.799 50.424 194.351 50.296C193.903 50.168 193.45 50.0293 192.991 49.88C192.543 49.72 192.132 49.528 191.759 49.304C191.386 49.0693 191.087 48.7653 190.863 48.392C190.639 48.0187 190.527 47.544 190.527 46.968C190.527 46.3813 190.687 45.8747 191.007 45.448C191.327 45.0213 191.78 44.6907 192.367 44.456C192.954 44.2107 193.631 44.088 194.399 44.088C195.05 44.088 195.684 44.184 196.303 44.376C196.932 44.568 197.482 44.8133 197.951 45.112L197.407 46.184Z" fill="black"/>
</svg>
