<svg width="250" height="99" viewBox="0 0 250 99" fill="none" xmlns="http://www.w3.org/2000/svg">
<path d="M19.6328 33.5723L0 0C2.73153 0 6.54428 1.99581 8.10922 2.99371L24.7544 26.7296C26.4617 28.6113 28.7379 29.652 29.6627 29.9371L65.0871 35.7107L63.5933 36.566H24.3276C22.1083 36.566 20.273 34.5702 19.6328 33.5723Z" fill="white"/>
<path d="M29.6627 41.2704H61.0325C60.6911 41.9547 57.4758 44.2642 55.9109 45.3333L32.8637 47.044C32.0101 47.044 30.374 48.7547 29.6627 49.6101L12.3772 70.7799V69.0692L26.0349 45.3333C27.4006 42.4252 29.0225 41.413 29.6627 41.2704Z" fill="white"/>
<path d="M20.273 42.9811L10.2432 26.7296L16.005 41.2704C16.8586 42.9811 16.6452 44.8344 16.4318 45.5472L10.67 57.9497C10.1579 59.6604 10.5989 62.0839 10.8834 63.0818L19.6328 48.1132C20.9986 45.7182 20.6287 43.6939 20.273 42.9811Z" fill="white"/>
<path d="M80.9756 16.97H99.0056V21.41H92.7056V38H87.2156V21.41H80.9756V16.97ZM110.683 16.97C113.483 16.97 115.643 17.62 117.163 18.92C118.683 20.2 119.443 22.01 119.443 24.35C119.443 26.81 118.683 28.73 117.163 30.11C115.643 31.47 113.483 32.15 110.683 32.15H106.723V38H101.233V16.97H110.683ZM110.683 27.83C111.823 27.83 112.693 27.55 113.293 26.99C113.913 26.43 114.223 25.6 114.223 24.5C114.223 23.44 113.913 22.64 113.293 22.1C112.693 21.56 111.823 21.29 110.683 21.29H106.723V27.83H110.683ZM109.723 30.14H115.063L120.073 38H113.863L109.723 30.14ZM129.782 16.97H135.422L144.242 38H138.392L132.452 22.46L126.392 38H120.752L129.782 16.97ZM126.152 30.08H138.422V34.22H126.152V30.08ZM160.799 24.02C160.119 23.16 159.309 22.48 158.369 21.98C157.429 21.48 156.499 21.23 155.579 21.23C154.779 21.23 154.029 21.39 153.329 21.71C152.629 22.01 152.019 22.44 151.499 23C150.979 23.54 150.579 24.19 150.299 24.95C150.019 25.69 149.879 26.5 149.879 27.38C149.879 28.26 150.019 29.08 150.299 29.84C150.579 30.58 150.979 31.23 151.499 31.79C152.019 32.35 152.629 32.79 153.329 33.11C154.029 33.41 154.779 33.56 155.579 33.56C156.459 33.56 157.359 33.34 158.279 32.9C159.219 32.44 160.059 31.83 160.799 31.07L164.009 34.46C163.249 35.26 162.389 35.96 161.429 36.56C160.469 37.14 159.459 37.59 158.399 37.91C157.359 38.23 156.319 38.39 155.279 38.39C153.699 38.39 152.239 38.12 150.899 37.58C149.559 37.02 148.389 36.25 147.389 35.27C146.409 34.27 145.639 33.11 145.079 31.79C144.519 30.45 144.239 29 144.239 27.44C144.239 25.9 144.519 24.48 145.079 23.18C145.639 21.86 146.429 20.71 147.449 19.73C148.469 18.75 149.659 17.99 151.019 17.45C152.399 16.91 153.889 16.64 155.489 16.64C156.529 16.64 157.569 16.79 158.609 17.09C159.649 17.37 160.629 17.78 161.549 18.32C162.469 18.86 163.279 19.5 163.979 20.24L160.799 24.02ZM166.36 16.97H171.85V26.21L179.74 16.97H186.1L171.85 32.75V38H166.36V16.97ZM177.88 25.04L186.58 38H180.01L174.22 29.36L177.88 25.04ZM187.991 16.97H206.051V20.51L194.951 33.65H206.231V38H187.601V34.49L198.701 21.32H187.991V16.97ZM209.104 16.97H225.694V21.29H214.594V25.31H224.614V29.6H214.594V33.68H225.994V38H209.104V16.97ZM238.799 16.97C241.599 16.97 243.759 17.62 245.279 18.92C246.799 20.2 247.559 22.01 247.559 24.35C247.559 26.81 246.799 28.73 245.279 30.11C243.759 31.47 241.599 32.15 238.799 32.15H234.839V38H229.349V16.97H238.799ZM238.799 27.83C239.939 27.83 240.809 27.55 241.409 26.99C242.029 26.43 242.339 25.6 242.339 24.5C242.339 23.44 242.029 22.64 241.409 22.1C240.809 21.56 239.939 21.29 238.799 21.29H234.839V27.83H238.799ZM237.839 30.14H243.179L248.189 38H241.979L237.839 30.14Z" fill="white"/>
<path d="M88.7976 50.784C88.467 50.56 88.115 50.384 87.7416 50.256C87.379 50.1173 87.0216 50.016 86.6696 49.952C86.3283 49.888 86.0083 49.856 85.7096 49.856C84.9843 49.856 84.403 50 83.9656 50.288C83.539 50.576 83.3256 50.9707 83.3256 51.472C83.3256 51.9093 83.4376 52.2613 83.6616 52.528C83.8963 52.7947 84.2003 53.0133 84.5736 53.184C84.947 53.3547 85.3576 53.5093 85.8056 53.648C86.2536 53.776 86.7016 53.92 87.1496 54.08C87.5976 54.2293 88.0083 54.4267 88.3816 54.672C88.755 54.9067 89.0536 55.216 89.2776 55.6C89.5016 55.9733 89.6136 56.4533 89.6136 57.04C89.6136 57.6587 89.443 58.1973 89.1016 58.656C88.7603 59.104 88.2856 59.456 87.6776 59.712C87.0696 59.9573 86.3656 60.08 85.5656 60.08C85.0216 60.08 84.4883 60.0107 83.9656 59.872C83.443 59.7227 82.9523 59.52 82.4936 59.264C82.035 59.008 81.6296 58.7147 81.2776 58.384L81.8536 57.344C82.2056 57.6747 82.5896 57.9573 83.0056 58.192C83.4216 58.4267 83.8483 58.608 84.2856 58.736C84.7336 58.864 85.1656 58.928 85.5816 58.928C86.3923 58.928 87.0323 58.7627 87.5016 58.432C87.971 58.1013 88.2056 57.6533 88.2056 57.088C88.2056 56.6507 88.0936 56.2933 87.8696 56.016C87.6456 55.7387 87.347 55.5147 86.9736 55.344C86.6003 55.1733 86.1896 55.024 85.7416 54.896C85.2936 54.768 84.8403 54.6293 84.3816 54.48C83.9336 54.32 83.523 54.128 83.1496 53.904C82.7763 53.6693 82.4776 53.3653 82.2536 52.992C82.0296 52.6187 81.9176 52.144 81.9176 51.568C81.9176 50.9813 82.0776 50.4747 82.3976 50.048C82.7176 49.6213 83.171 49.2907 83.7576 49.056C84.3443 48.8107 85.0216 48.688 85.7896 48.688C86.4403 48.688 87.075 48.784 87.6936 48.976C88.323 49.168 88.8723 49.4133 89.3416 49.712L88.7976 50.784ZM90.6429 48.8H92.0189L95.2829 59.184H94.9469L98.1949 48.8H99.4749L102.739 59.184H102.419L105.651 48.8H106.995L103.203 60H101.875L98.6589 49.856H98.9949L95.7309 60H94.4189L90.6429 48.8ZM108.774 48.8H110.054V60H108.774V48.8ZM111.926 48.8H120.518V49.92H116.854V60H115.574V49.92H111.926V48.8ZM129.761 51.2C129.334 50.7627 128.828 50.4213 128.241 50.176C127.665 49.92 127.068 49.792 126.449 49.792C125.82 49.792 125.228 49.9093 124.673 50.144C124.118 50.3787 123.633 50.7093 123.217 51.136C122.801 51.552 122.476 52.0373 122.241 52.592C122.006 53.1467 121.889 53.744 121.889 54.384C121.889 55.0133 122.006 55.6053 122.241 56.16C122.476 56.7147 122.801 57.2 123.217 57.616C123.633 58.032 124.118 58.3627 124.673 58.608C125.228 58.8427 125.82 58.96 126.449 58.96C127.068 58.96 127.66 58.8427 128.225 58.608C128.801 58.3627 129.313 58.0267 129.761 57.6L130.545 58.4C130.182 58.7413 129.772 59.04 129.313 59.296C128.865 59.552 128.396 59.7493 127.905 59.888C127.414 60.0267 126.908 60.096 126.385 60.096C125.574 60.096 124.817 59.952 124.113 59.664C123.42 59.3653 122.806 58.9547 122.273 58.432C121.75 57.9093 121.34 57.3013 121.041 56.608C120.742 55.9147 120.593 55.1733 120.593 54.384C120.593 53.5947 120.742 52.8587 121.041 52.176C121.34 51.4933 121.756 50.8907 122.289 50.368C122.822 49.8453 123.441 49.44 124.145 49.152C124.849 48.864 125.612 48.72 126.433 48.72C126.945 48.72 127.446 48.784 127.937 48.912C128.428 49.04 128.892 49.2267 129.329 49.472C129.766 49.7067 130.166 49.9947 130.529 50.336L129.761 51.2ZM132.852 48.8H134.132V53.904H140.884V48.8H142.164V60H140.884V55.008H134.132V60H132.852V48.8ZM153.795 51.12C153.347 50.704 152.825 50.3787 152.227 50.144C151.641 49.9093 151.033 49.792 150.403 49.792C149.763 49.792 149.166 49.9147 148.611 50.16C148.057 50.3947 147.566 50.7253 147.139 51.152C146.713 51.568 146.382 52.0533 146.147 52.608C145.913 53.152 145.795 53.744 145.795 54.384C145.795 55.024 145.913 55.6213 146.147 56.176C146.382 56.7307 146.713 57.2213 147.139 57.648C147.566 58.0747 148.057 58.4107 148.611 58.656C149.166 58.8907 149.769 59.008 150.419 59.008C151.006 59.008 151.593 58.896 152.179 58.672C152.766 58.4373 153.289 58.128 153.747 57.744L154.499 58.624C154.137 58.912 153.726 59.168 153.267 59.392C152.809 59.616 152.329 59.792 151.827 59.92C151.337 60.0373 150.841 60.096 150.339 60.096C149.518 60.096 148.755 59.952 148.051 59.664C147.347 59.3653 146.729 58.9547 146.195 58.432C145.662 57.9093 145.246 57.3013 144.947 56.608C144.649 55.9147 144.499 55.1733 144.499 54.384C144.499 53.5947 144.649 52.8587 144.947 52.176C145.257 51.4933 145.678 50.8907 146.211 50.368C146.755 49.8453 147.385 49.44 148.099 49.152C148.814 48.864 149.582 48.72 150.403 48.72C150.915 48.72 151.417 48.784 151.907 48.912C152.409 49.0293 152.878 49.2 153.315 49.424C153.763 49.648 154.169 49.92 154.531 50.24L153.795 51.12ZM153.363 54.528H154.499V58.624H153.363V54.528ZM157.602 48.8H165.202V49.92H158.882V53.76H164.53V54.864H158.882V58.896H165.41V60H157.602V48.8ZM171.416 48.8H172.728L177.736 60H176.36L172.04 50.112L167.752 60H166.408L171.416 48.8ZM168.616 55.984H175.416V57.088H168.616V55.984ZM183.765 48.8C185.173 48.8 186.261 49.1307 187.029 49.792C187.797 50.4427 188.181 51.36 188.181 52.544C188.181 53.7707 187.797 54.7253 187.029 55.408C186.261 56.08 185.173 56.416 183.765 56.416H180.789V60H179.509V48.8H183.765ZM183.765 55.312C184.778 55.312 185.562 55.0827 186.117 54.624C186.682 54.1547 186.965 53.472 186.965 52.576C186.965 51.7013 186.682 51.04 186.117 50.592C185.562 50.144 184.778 49.92 183.765 49.92H180.789V55.312H183.765ZM184.149 55.888H185.445L188.293 60H186.837L184.149 55.888ZM197.407 50.784C197.076 50.56 196.724 50.384 196.351 50.256C195.988 50.1173 195.631 50.016 195.279 49.952C194.938 49.888 194.618 49.856 194.319 49.856C193.594 49.856 193.012 50 192.575 50.288C192.148 50.576 191.935 50.9707 191.935 51.472C191.935 51.9093 192.047 52.2613 192.271 52.528C192.506 52.7947 192.81 53.0133 193.183 53.184C193.556 53.3547 193.967 53.5093 194.415 53.648C194.863 53.776 195.311 53.92 195.759 54.08C196.207 54.2293 196.618 54.4267 196.991 54.672C197.364 54.9067 197.663 55.216 197.887 55.6C198.111 55.9733 198.223 56.4533 198.223 57.04C198.223 57.6587 198.052 58.1973 197.711 58.656C197.37 59.104 196.895 59.456 196.287 59.712C195.679 59.9573 194.975 60.08 194.175 60.08C193.631 60.08 193.098 60.0107 192.575 59.872C192.052 59.7227 191.562 59.52 191.103 59.264C190.644 59.008 190.239 58.7147 189.887 58.384L190.463 57.344C190.815 57.6747 191.199 57.9573 191.615 58.192C192.031 58.4267 192.458 58.608 192.895 58.736C193.343 58.864 193.775 58.928 194.191 58.928C195.002 58.928 195.642 58.7627 196.111 58.432C196.58 58.1013 196.815 57.6533 196.815 57.088C196.815 56.6507 196.703 56.2933 196.479 56.016C196.255 55.7387 195.956 55.5147 195.583 55.344C195.21 55.1733 194.799 55.024 194.351 54.896C193.903 54.768 193.45 54.6293 192.991 54.48C192.543 54.32 192.132 54.128 191.759 53.904C191.386 53.6693 191.087 53.3653 190.863 52.992C190.639 52.6187 190.527 52.144 190.527 51.568C190.527 50.9813 190.687 50.4747 191.007 50.048C191.327 49.6213 191.78 49.2907 192.367 49.056C192.954 48.8107 193.631 48.688 194.399 48.688C195.05 48.688 195.684 48.784 196.303 48.976C196.932 49.168 197.482 49.4133 197.951 49.712L197.407 50.784Z" fill="#F0F0F0"/>
<path d="M50 89.24C48.72 89.24 47.62 88.94 46.7 88.34C45.7933 87.7267 45.16 86.8867 44.8 85.82L46 85.12C46.2533 85.9867 46.72 86.6667 47.4 87.16C48.08 87.64 48.9533 87.88 50.02 87.88C51.06 87.88 51.8667 87.6533 52.44 87.2C53.0267 86.7333 53.32 86.12 53.32 85.36C53.32 84.6267 53.0533 84.0733 52.52 83.7C51.9867 83.3267 51.1067 82.94 49.88 82.54C48.4267 82.06 47.4667 81.6733 47 81.38C45.9333 80.74 45.4 79.8133 45.4 78.6C45.4 77.4133 45.8133 76.48 46.64 75.8C47.4667 75.1067 48.4867 74.76 49.7 74.76C50.7933 74.76 51.74 75.0467 52.54 75.62C53.34 76.18 53.9333 76.9 54.32 77.78L53.14 78.44C52.5 76.8933 51.3533 76.12 49.7 76.12C48.8333 76.12 48.1333 76.3333 47.6 76.76C47.0667 77.1867 46.8 77.78 46.8 78.54C46.8 79.2333 47.04 79.7533 47.52 80.1C48 80.4467 48.7933 80.8 49.9 81.16C50.4067 81.3333 50.7667 81.46 50.98 81.54C51.2067 81.6067 51.5267 81.7267 51.94 81.9C52.3667 82.06 52.68 82.2067 52.88 82.34C53.08 82.46 53.32 82.6333 53.6 82.86C53.8933 83.0733 54.1 83.2933 54.22 83.52C54.3533 83.7333 54.4667 84 54.56 84.32C54.6667 84.6267 54.72 84.96 54.72 85.32C54.72 86.5067 54.2867 87.46 53.42 88.18C52.5533 88.8867 51.4133 89.24 50 89.24ZM68.7728 79H70.1328L67.0528 89H65.6128L63.0328 80.94L60.4528 89H59.0128L55.9328 79H57.2928L59.7528 87.3L62.3728 79H63.6928L66.3128 87.3L68.7728 79ZM73.6634 76.6C73.4768 76.7867 73.2501 76.88 72.9834 76.88C72.7168 76.88 72.4901 76.7867 72.3034 76.6C72.1168 76.4133 72.0234 76.1867 72.0234 75.92C72.0234 75.6533 72.1168 75.4267 72.3034 75.24C72.4901 75.0533 72.7168 74.96 72.9834 74.96C73.2501 74.96 73.4768 75.0533 73.6634 75.24C73.8501 75.4267 73.9434 75.6533 73.9434 75.92C73.9434 76.1867 73.8501 76.4133 73.6634 76.6ZM72.3234 89V79H73.6434V89H72.3234ZM81.9445 80.28H79.0645V86.34C79.0645 86.8867 79.1712 87.28 79.3845 87.52C79.5979 87.7467 79.9179 87.8667 80.3445 87.88C80.7712 87.88 81.3045 87.8667 81.9445 87.84V89C80.5445 89.2133 79.4912 89.1133 78.7845 88.7C78.0912 88.2867 77.7445 87.5 77.7445 86.34V80.28H75.6445V79H77.7445V76.6L79.0645 76.2V79H81.9445V80.28ZM88.3991 89.24C86.8924 89.24 85.6391 88.74 84.6391 87.74C83.6391 86.7267 83.1391 85.48 83.1391 84C83.1391 82.52 83.6391 81.28 84.6391 80.28C85.6391 79.2667 86.8924 78.76 88.3991 78.76C89.3857 78.76 90.2724 79 91.0591 79.48C91.8457 79.9467 92.4191 80.58 92.7791 81.38L91.6991 82C91.4324 81.4 90.9991 80.9267 90.3991 80.58C89.8124 80.22 89.1457 80.04 88.3991 80.04C87.2924 80.04 86.3591 80.4267 85.5991 81.2C84.8391 81.96 84.4591 82.8933 84.4591 84C84.4591 85.1067 84.8391 86.0467 85.5991 86.82C86.3591 87.58 87.2924 87.96 88.3991 87.96C89.1457 87.96 89.8124 87.7867 90.3991 87.44C90.9857 87.08 91.4457 86.6 91.7791 86L92.8791 86.64C92.4657 87.44 91.8591 88.0733 91.0591 88.54C90.2591 89.0067 89.3724 89.24 88.3991 89.24ZM99.6542 78.76C100.868 78.76 101.821 79.1333 102.514 79.88C103.221 80.6133 103.574 81.6067 103.574 82.86V89H102.254V82.86C102.254 81.9667 102.014 81.2733 101.534 80.78C101.068 80.2867 100.401 80.04 99.5342 80.04C98.5742 80.04 97.7942 80.3467 97.1942 80.96C96.5942 81.56 96.2942 82.4933 96.2942 83.76V89H94.9742V75H96.2942V80.56C97.0409 79.36 98.1609 78.76 99.6542 78.76ZM116.827 80.28H113.947V86.34C113.947 86.8867 114.053 87.28 114.267 87.52C114.48 87.7467 114.8 87.8667 115.227 87.88C115.653 87.88 116.187 87.8667 116.827 87.84V89C115.427 89.2133 114.373 89.1133 113.667 88.7C112.973 88.2867 112.627 87.5 112.627 86.34V80.28H110.527V79H112.627V76.6L113.947 76.2V79H116.827V80.28ZM127.001 87.74C125.988 88.74 124.748 89.24 123.281 89.24C121.814 89.24 120.568 88.74 119.541 87.74C118.528 86.7267 118.021 85.48 118.021 84C118.021 82.52 118.528 81.28 119.541 80.28C120.568 79.2667 121.814 78.76 123.281 78.76C124.748 78.76 125.988 79.2667 127.001 80.28C128.028 81.28 128.541 82.52 128.541 84C128.541 85.48 128.028 86.7267 127.001 87.74ZM120.481 86.82C121.241 87.58 122.174 87.96 123.281 87.96C124.388 87.96 125.321 87.58 126.081 86.82C126.841 86.0467 127.221 85.1067 127.221 84C127.221 82.8933 126.841 81.96 126.081 81.2C125.321 80.4267 124.388 80.04 123.281 80.04C122.174 80.04 121.241 80.4267 120.481 81.2C119.721 81.96 119.341 82.8933 119.341 84C119.341 85.1067 119.721 86.0467 120.481 86.82ZM144.95 89L141.67 83.4H137.75V89H136.35V75H141.95C143.11 75 144.097 75.4133 144.91 76.24C145.737 77.0533 146.15 78.04 146.15 79.2C146.15 80.1467 145.863 80.9933 145.29 81.74C144.73 82.4733 144.01 82.9667 143.13 83.22L146.55 89H144.95ZM137.75 76.32V82.08H141.95C142.723 82.08 143.383 81.8 143.93 81.24C144.477 80.6667 144.75 79.9867 144.75 79.2C144.75 78.4 144.477 77.72 143.93 77.16C143.383 76.6 142.723 76.32 141.95 76.32H137.75ZM152.669 78.76C154.149 78.76 155.343 79.2867 156.249 80.34C157.169 81.38 157.629 82.6133 157.629 84.04C157.629 84.1867 157.616 84.3933 157.589 84.66H148.809C148.943 85.6733 149.369 86.48 150.089 87.08C150.823 87.6667 151.723 87.96 152.789 87.96C153.549 87.96 154.203 87.8067 154.749 87.5C155.309 87.18 155.729 86.7667 156.009 86.26L157.169 86.94C156.729 87.6467 156.129 88.2067 155.369 88.62C154.609 89.0333 153.743 89.24 152.769 89.24C151.196 89.24 149.916 88.7467 148.929 87.76C147.943 86.7733 147.449 85.52 147.449 84C147.449 82.5067 147.936 81.26 148.909 80.26C149.883 79.26 151.136 78.76 152.669 78.76ZM152.669 80.04C151.629 80.04 150.756 80.3533 150.049 80.98C149.356 81.5933 148.943 82.3933 148.809 83.38H156.269C156.136 82.3267 155.729 81.5067 155.049 80.92C154.369 80.3333 153.576 80.04 152.669 80.04ZM168.529 79H169.849V89H168.529V87.04C167.609 88.5067 166.262 89.24 164.489 89.24C163.062 89.24 161.842 88.7333 160.829 87.72C159.829 86.7067 159.329 85.4667 159.329 84C159.329 82.5333 159.829 81.2933 160.829 80.28C161.842 79.2667 163.062 78.76 164.489 78.76C166.262 78.76 167.609 79.4933 168.529 80.96V79ZM161.789 86.82C162.549 87.58 163.482 87.96 164.589 87.96C165.696 87.96 166.629 87.58 167.389 86.82C168.149 86.0467 168.529 85.1067 168.529 84C168.529 82.8933 168.149 81.96 167.389 81.2C166.629 80.4267 165.696 80.04 164.589 80.04C163.482 80.04 162.549 80.4267 161.789 81.2C161.029 81.96 160.649 82.8933 160.649 84C160.649 85.1067 161.029 86.0467 161.789 86.82ZM172.844 89V74.4H174.164V89H172.844ZM178.505 76.6C178.318 76.7867 178.092 76.88 177.825 76.88C177.558 76.88 177.332 76.7867 177.145 76.6C176.958 76.4133 176.865 76.1867 176.865 75.92C176.865 75.6533 176.958 75.4267 177.145 75.24C177.332 75.0533 177.558 74.96 177.825 74.96C178.092 74.96 178.318 75.0533 178.505 75.24C178.692 75.4267 178.785 75.6533 178.785 75.92C178.785 76.1867 178.692 76.4133 178.505 76.6ZM177.165 89V79H178.485V89H177.165ZM190.086 79H191.406V89H190.086V87.04C189.166 88.5067 187.819 89.24 186.046 89.24C184.619 89.24 183.399 88.7333 182.386 87.72C181.386 86.7067 180.886 85.4667 180.886 84C180.886 82.5333 181.386 81.2933 182.386 80.28C183.399 79.2667 184.619 78.76 186.046 78.76C187.819 78.76 189.166 79.4933 190.086 80.96V79ZM183.346 86.82C184.106 87.58 185.039 87.96 186.146 87.96C187.253 87.96 188.186 87.58 188.946 86.82C189.706 86.0467 190.086 85.1067 190.086 84C190.086 82.8933 189.706 81.96 188.946 81.2C188.186 80.4267 187.253 80.04 186.146 80.04C185.039 80.04 184.106 80.4267 183.346 81.2C182.586 81.96 182.206 82.8933 182.206 84C182.206 85.1067 182.586 86.0467 183.346 86.82ZM199.701 80.28H196.821V86.34C196.821 86.8867 196.927 87.28 197.141 87.52C197.354 87.7467 197.674 87.8667 198.101 87.88C198.527 87.88 199.061 87.8667 199.701 87.84V89C198.301 89.2133 197.247 89.1133 196.541 88.7C195.847 88.2867 195.501 87.5 195.501 86.34V80.28H193.401V79H195.501V76.6L196.821 76.2V79H199.701V80.28ZM209.496 79H210.896L206.616 89.92C206.229 90.9067 205.676 91.68 204.956 92.24C204.249 92.8133 203.456 93.0667 202.576 93V91.76C203.776 91.8933 204.689 91.2 205.316 89.68L205.576 89.06L201.096 79H202.496L206.256 87.38L209.496 79Z" fill="white"/>
</svg>
